<?xml version="1.0" encoding="UTF-8"?>
<svg width="1024px" height="133px" viewBox="0 0 1024 133" version="1.1" xmlns="http://www.w3.org/2000/svg" xmlns:xlink="http://www.w3.org/1999/xlink">
    <!-- Generator: Sketch 48.2 (47327) - http://www.bohemiancoding.com/sketch -->
    <title>monuments-night</title>
    <desc>Created with Sketch.</desc>
    <defs></defs>
    <g id="Error-Full" stroke="none" stroke-width="1" fill="none" fill-rule="evenodd" transform="translate(0.000000, -635.000000)">
        <g id="Error" transform="translate(0.000000, 240.000000)" fill-rule="nonzero">
            <g id="monuments-night" transform="translate(0.000000, 395.000000)">
                <path d="M552.816903,66 C560.648416,64.1418963 570.54169,62.8678635 581,62.4534008 L537,11 L537,46.4423262 L552.816903,66 Z" id="Shape" fill="#3B24B3"></path>
                <polygon id="Shape" fill="#5124F2" points="537 11 521 29.5001498 537 47"></polygon>
                <path d="M513.08641,83 C524.836391,76.5707627 537.586974,70.1415254 554,66.2637021 L537.201762,45.8044301 L522.115955,28.1778233 L498,0 L498,75.1172957 C503.256134,77.62012 508.171423,80.31006 513.08641,83 Z" id="Shape" fill="#311E94"></path>
                <path d="M498,0 L445,62.4691977 C468.205742,63.3946902 484.696938,69.5908879 498,76 L498,0 Z" id="Shape" fill="#3B23B0"></path>
                <path d="M580.434848,61.1473298 C562.173658,61.1473298 560.999394,62.8343168 553.133939,64.6907603 C536.630303,68.5858358 524.814848,75.0436764 513,81.501517 C513,89.9754914 513,107.141652 513,133 C625.313522,133 686.980188,133 698,133 C704.782638,133 813.449305,133 1024,133 C961.522677,126.502027 900.530492,119.798924 841.023444,112.890691 C781.12403,105.936907 722.662178,92.390077 698,87.846423 C636.586877,76.5319321 598.696039,61.1473298 580.434848,61.1473298 Z" id="Shape" fill="#453D99"></path>
                <path d="M513,81.5544711 C508.057879,78.8452806 503.115455,76.1366979 497.830303,73.616245 C484.458788,67.2389795 469.608433,62.5813253 445.562727,61.1477077 C410.901842,59.0812075 363.126978,70.1575082 327,78.3018833 C313.48473,81.3487319 253.002084,93.0230302 205.610265,104.349752 C174.015719,111.900901 105.478964,121.450983 0,133 C208.660068,133 317.660068,133 327,133 C341.789447,133 465.456114,133 698,133 C660.5,133 531.751515,91.8301871 513,81.5544711 Z" id="Shape" fill="#504999"></path>
            </g>
        </g>
    </g>
</svg>